<svg xmlns="http://www.w3.org/2000/svg" version="1.1" xmlns:xlink="http://www.w3.org/1999/xlink" xmlns:svgjs="http://svgjs.dev/svgjs" width="1440" height="560" preserveAspectRatio="none" viewBox="0 0 1440 560"><g mask="url(&quot;#SvgjsMask4509&quot;)" fill="none"><g mask="url(&quot;#SvgjsMask4511&quot;)"><path d="M602 322L630 294L658 294L686 294M490 322L518 294L546 294L574 294L602 294M126 294L154 322M462 294L490 294M-14 294L14 294L42 294L70 294L98 294L126 294L154 294L182 294L210 294L238 294L266 294L294 294L322 294L350 294L378 294L406 294L434 294L462 294L490 322L518 322L546 322L574 322L602 322L630 322L658 322L686 322" stroke="url(&quot;#SvgjsLinearGradient4510&quot;)" stroke-width="4.67"></path><path d="M679 322 a7 7 0 1 0 14 0 a7 7 0 1 0 -14 0zM679 294 a7 7 0 1 0 14 0 a7 7 0 1 0 -14 0zM595 294 a7 7 0 1 0 14 0 a7 7 0 1 0 -14 0zM147 322 a7 7 0 1 0 14 0 a7 7 0 1 0 -14 0zM483 294 a7 7 0 1 0 14 0 a7 7 0 1 0 -14 0z" fill="url(&quot;#SvgjsLinearGradient4510&quot;)"></path><path d="M-14 266L14 266L42 266L70 266L98 266L126 266L154 266L182 266L210 266L238 266L266 266L294 266L322 266L350 266" stroke="url(&quot;#SvgjsLinearGradient4510&quot;)" stroke-width="4.67"></path><path d="M343 266 a7 7 0 1 0 14 0 a7 7 0 1 0 -14 0z" fill="url(&quot;#SvgjsLinearGradient4510&quot;)"></path><path d="M-14 322L14 322L42 322L70 322" stroke="url(&quot;#SvgjsLinearGradient4510&quot;)" stroke-width="4.67"></path><path d="M63 322 a7 7 0 1 0 14 0 a7 7 0 1 0 -14 0z" fill="url(&quot;#SvgjsLinearGradient4510&quot;)"></path><path d="M350 238L378 238L406 238M462 266L490 238L518 238M574 266L602 238L630 238M854 266L882 294L910 294L938 294L966 266L994 266M686 266L714 266M798 294L826 294L854 294L882 322L910 350L938 350L966 350L994 350L1022 350L1050 350M742 294L770 322L798 322M546 266L574 238M-14 238L14 238L42 238L70 238L98 238L126 238L154 238L182 238L210 238L238 238L266 238L294 238L322 238L350 238L378 266L406 266L434 266L462 266L490 266L518 266L546 266L574 266L602 266L630 266L658 266L686 266L714 294L742 294L770 294L798 294L826 266L854 266L882 266" stroke="url(&quot;#SvgjsLinearGradient4510&quot;)" stroke-width="4.67"></path><path d="M875 266 a7 7 0 1 0 14 0 a7 7 0 1 0 -14 0zM399 238 a7 7 0 1 0 14 0 a7 7 0 1 0 -14 0zM511 238 a7 7 0 1 0 14 0 a7 7 0 1 0 -14 0zM623 238 a7 7 0 1 0 14 0 a7 7 0 1 0 -14 0zM987 266 a7 7 0 1 0 14 0 a7 7 0 1 0 -14 0zM707 266 a7 7 0 1 0 14 0 a7 7 0 1 0 -14 0zM1043 350 a7 7 0 1 0 14 0 a7 7 0 1 0 -14 0zM791 322 a7 7 0 1 0 14 0 a7 7 0 1 0 -14 0zM567 238 a7 7 0 1 0 14 0 a7 7 0 1 0 -14 0z" fill="url(&quot;#SvgjsLinearGradient4510&quot;)"></path><path d="M238 322L266 350L294 350L322 350M154 350L182 350L210 350L238 350M686 350L714 378M98 378L126 350M770 350L798 378L826 378L854 378L882 378L910 406M434 322L462 322M602 350L630 378L658 378L686 378L714 406L742 406M490 350L518 378L546 378M-14 350L14 350L42 350L70 350L98 378L126 378L154 350L182 322L210 322L238 322L266 322L294 322L322 322L350 322L378 322L406 322L434 322L462 350L490 350L518 350L546 350L574 350L602 350L630 350L658 350L686 350L714 350L742 350L770 350L798 350L826 350L854 350L882 350L910 378" stroke="url(&quot;#SvgjsLinearGradient4510&quot;)" stroke-width="4.67"></path><path d="M903 378 a7 7 0 1 0 14 0 a7 7 0 1 0 -14 0zM315 350 a7 7 0 1 0 14 0 a7 7 0 1 0 -14 0zM231 350 a7 7 0 1 0 14 0 a7 7 0 1 0 -14 0zM707 378 a7 7 0 1 0 14 0 a7 7 0 1 0 -14 0zM119 350 a7 7 0 1 0 14 0 a7 7 0 1 0 -14 0zM903 406 a7 7 0 1 0 14 0 a7 7 0 1 0 -14 0zM455 322 a7 7 0 1 0 14 0 a7 7 0 1 0 -14 0zM735 406 a7 7 0 1 0 14 0 a7 7 0 1 0 -14 0zM539 378 a7 7 0 1 0 14 0 a7 7 0 1 0 -14 0z" fill="url(&quot;#SvgjsLinearGradient4510&quot;)"></path><path d="M406 210L434 182L462 182M434 210L462 238M518 210L546 182L574 182M490 210L518 182M-14 210L14 210L42 210L70 210L98 210L126 210L154 210L182 210L210 210L238 210L266 210L294 210L322 210L350 210L378 210L406 210L434 210L462 210L490 210L518 210L546 210L574 210L602 210L630 210" stroke="url(&quot;#SvgjsLinearGradient4510&quot;)" stroke-width="4.67"></path><path d="M623 210 a7 7 0 1 0 14 0 a7 7 0 1 0 -14 0zM455 182 a7 7 0 1 0 14 0 a7 7 0 1 0 -14 0zM455 238 a7 7 0 1 0 14 0 a7 7 0 1 0 -14 0zM567 182 a7 7 0 1 0 14 0 a7 7 0 1 0 -14 0zM511 182 a7 7 0 1 0 14 0 a7 7 0 1 0 -14 0z" fill="url(&quot;#SvgjsLinearGradient4510&quot;)"></path><path d="M210 406L238 406M182 406L210 434L238 434M154 406L182 434L210 462M-14 378L14 378L42 378L70 378L98 406L126 406L154 406L182 406L210 406L238 378L266 378" stroke="url(&quot;#SvgjsLinearGradient4510&quot;)" stroke-width="4.67"></path><path d="M259 378 a7 7 0 1 0 14 0 a7 7 0 1 0 -14 0zM231 406 a7 7 0 1 0 14 0 a7 7 0 1 0 -14 0zM231 434 a7 7 0 1 0 14 0 a7 7 0 1 0 -14 0zM203 462 a7 7 0 1 0 14 0 a7 7 0 1 0 -14 0z" fill="url(&quot;#SvgjsLinearGradient4510&quot;)"></path><path d="M714 182L742 210M826 210L854 238L882 238L910 266L938 266M574 154L602 154M798 210L826 182L854 182L882 182L910 182L938 182L966 182M742 182L770 182L798 182L826 154M378 182L406 182M686 182L714 154L742 154M350 182L378 154M-14 182L14 182L42 182L70 182L98 182L126 182L154 182L182 182L210 182L238 182L266 182L294 182L322 182L350 182L378 182L406 154L434 154L462 154L490 154L518 154L546 154L574 154L602 182L630 182L658 182L686 182L714 182L742 182L770 210L798 210L826 210L854 210L882 210" stroke="url(&quot;#SvgjsLinearGradient4510&quot;)" stroke-width="4.67"></path><path d="M875 210 a7 7 0 1 0 14 0 a7 7 0 1 0 -14 0zM735 210 a7 7 0 1 0 14 0 a7 7 0 1 0 -14 0zM931 266 a7 7 0 1 0 14 0 a7 7 0 1 0 -14 0zM595 154 a7 7 0 1 0 14 0 a7 7 0 1 0 -14 0zM959 182 a7 7 0 1 0 14 0 a7 7 0 1 0 -14 0zM819 154 a7 7 0 1 0 14 0 a7 7 0 1 0 -14 0zM399 182 a7 7 0 1 0 14 0 a7 7 0 1 0 -14 0zM735 154 a7 7 0 1 0 14 0 a7 7 0 1 0 -14 0zM371 154 a7 7 0 1 0 14 0 a7 7 0 1 0 -14 0z" fill="url(&quot;#SvgjsLinearGradient4510&quot;)"></path><path d="M14 406L42 434L70 434L98 462L126 462M-14 406L14 406L42 406" stroke="url(&quot;#SvgjsLinearGradient4510&quot;)" stroke-width="4.67"></path><path d="M35 406 a7 7 0 1 0 14 0 a7 7 0 1 0 -14 0zM119 462 a7 7 0 1 0 14 0 a7 7 0 1 0 -14 0z" fill="url(&quot;#SvgjsLinearGradient4510&quot;)"></path><path d="M350 126L378 98L406 98L434 98L462 98L490 98L518 98M42 154L70 126L98 126L126 98M238 154L266 126L294 126L322 126L350 98L378 70M154 154L182 126L210 126L238 126L266 98M546 126L574 98L602 98L630 70L658 70M322 154L350 154M-14 154L14 154L42 154L70 154L98 154L126 154L154 154L182 154L210 154L238 154L266 154L294 154L322 154L350 126L378 126L406 126L434 126L462 126L490 126L518 126L546 126L574 126L602 126L630 126L658 126" stroke="url(&quot;#SvgjsLinearGradient4510&quot;)" stroke-width="4.67"></path><path d="M651 126 a7 7 0 1 0 14 0 a7 7 0 1 0 -14 0zM511 98 a7 7 0 1 0 14 0 a7 7 0 1 0 -14 0zM119 98 a7 7 0 1 0 14 0 a7 7 0 1 0 -14 0zM371 70 a7 7 0 1 0 14 0 a7 7 0 1 0 -14 0zM259 98 a7 7 0 1 0 14 0 a7 7 0 1 0 -14 0zM651 70 a7 7 0 1 0 14 0 a7 7 0 1 0 -14 0zM343 154 a7 7 0 1 0 14 0 a7 7 0 1 0 -14 0z" fill="url(&quot;#SvgjsLinearGradient4510&quot;)"></path></g></g><defs><mask id="SvgjsMask4509"><rect width="1440" height="560" fill="#ffffff"></rect></mask><linearGradient x1="0" y1="280" x2="1180.8" y2="280" gradientUnits="userSpaceOnUse" id="SvgjsLinearGradient4510"><stop stop-color="rgba(195, 58, 58, 1)" offset="0"></stop><stop stop-color="rgba(245, 158, 11, 1)" offset="0.28"></stop></linearGradient><mask id="SvgjsMask4511"><rect width="1440" height="560" fill="white"></rect><path d="M682.5 322 a3.5 3.5 0 1 0 7 0 a3.5 3.5 0 1 0 -7 0zM682.5 294 a3.5 3.5 0 1 0 7 0 a3.5 3.5 0 1 0 -7 0zM598.5 294 a3.5 3.5 0 1 0 7 0 a3.5 3.5 0 1 0 -7 0zM150.5 322 a3.5 3.5 0 1 0 7 0 a3.5 3.5 0 1 0 -7 0zM486.5 294 a3.5 3.5 0 1 0 7 0 a3.5 3.5 0 1 0 -7 0z" fill="black"></path><path d="M346.5 266 a3.5 3.5 0 1 0 7 0 a3.5 3.5 0 1 0 -7 0z" fill="black"></path><path d="M66.5 322 a3.5 3.5 0 1 0 7 0 a3.5 3.5 0 1 0 -7 0z" fill="black"></path><path d="M878.5 266 a3.5 3.5 0 1 0 7 0 a3.5 3.5 0 1 0 -7 0zM402.5 238 a3.5 3.5 0 1 0 7 0 a3.5 3.5 0 1 0 -7 0zM514.5 238 a3.5 3.5 0 1 0 7 0 a3.5 3.5 0 1 0 -7 0zM626.5 238 a3.5 3.5 0 1 0 7 0 a3.5 3.5 0 1 0 -7 0zM990.5 266 a3.5 3.5 0 1 0 7 0 a3.5 3.5 0 1 0 -7 0zM710.5 266 a3.5 3.5 0 1 0 7 0 a3.5 3.5 0 1 0 -7 0zM1046.5 350 a3.5 3.5 0 1 0 7 0 a3.5 3.5 0 1 0 -7 0zM794.5 322 a3.5 3.5 0 1 0 7 0 a3.5 3.5 0 1 0 -7 0zM570.5 238 a3.5 3.5 0 1 0 7 0 a3.5 3.5 0 1 0 -7 0z" fill="black"></path><path d="M906.5 378 a3.5 3.5 0 1 0 7 0 a3.5 3.5 0 1 0 -7 0zM318.5 350 a3.5 3.5 0 1 0 7 0 a3.5 3.5 0 1 0 -7 0zM234.5 350 a3.5 3.5 0 1 0 7 0 a3.5 3.5 0 1 0 -7 0zM710.5 378 a3.5 3.5 0 1 0 7 0 a3.5 3.5 0 1 0 -7 0zM122.5 350 a3.5 3.5 0 1 0 7 0 a3.5 3.5 0 1 0 -7 0zM906.5 406 a3.5 3.5 0 1 0 7 0 a3.5 3.5 0 1 0 -7 0zM458.5 322 a3.5 3.5 0 1 0 7 0 a3.5 3.5 0 1 0 -7 0zM738.5 406 a3.5 3.5 0 1 0 7 0 a3.5 3.5 0 1 0 -7 0zM542.5 378 a3.5 3.5 0 1 0 7 0 a3.5 3.5 0 1 0 -7 0z" fill="black"></path><path d="M626.5 210 a3.5 3.5 0 1 0 7 0 a3.5 3.5 0 1 0 -7 0zM458.5 182 a3.5 3.5 0 1 0 7 0 a3.5 3.5 0 1 0 -7 0zM458.5 238 a3.5 3.5 0 1 0 7 0 a3.5 3.5 0 1 0 -7 0zM570.5 182 a3.5 3.5 0 1 0 7 0 a3.5 3.5 0 1 0 -7 0zM514.5 182 a3.5 3.5 0 1 0 7 0 a3.5 3.5 0 1 0 -7 0z" fill="black"></path><path d="M262.5 378 a3.5 3.5 0 1 0 7 0 a3.5 3.5 0 1 0 -7 0zM234.5 406 a3.5 3.5 0 1 0 7 0 a3.5 3.5 0 1 0 -7 0zM234.5 434 a3.5 3.5 0 1 0 7 0 a3.5 3.5 0 1 0 -7 0zM206.5 462 a3.5 3.5 0 1 0 7 0 a3.5 3.5 0 1 0 -7 0z" fill="black"></path><path d="M878.5 210 a3.5 3.5 0 1 0 7 0 a3.5 3.5 0 1 0 -7 0zM738.5 210 a3.5 3.5 0 1 0 7 0 a3.5 3.5 0 1 0 -7 0zM934.5 266 a3.5 3.5 0 1 0 7 0 a3.5 3.5 0 1 0 -7 0zM598.5 154 a3.5 3.5 0 1 0 7 0 a3.5 3.5 0 1 0 -7 0zM962.5 182 a3.5 3.5 0 1 0 7 0 a3.5 3.5 0 1 0 -7 0zM822.5 154 a3.5 3.5 0 1 0 7 0 a3.5 3.5 0 1 0 -7 0zM402.5 182 a3.5 3.5 0 1 0 7 0 a3.5 3.5 0 1 0 -7 0zM738.5 154 a3.5 3.5 0 1 0 7 0 a3.5 3.5 0 1 0 -7 0zM374.5 154 a3.5 3.5 0 1 0 7 0 a3.5 3.5 0 1 0 -7 0z" fill="black"></path><path d="M38.5 406 a3.5 3.5 0 1 0 7 0 a3.5 3.5 0 1 0 -7 0zM122.5 462 a3.5 3.5 0 1 0 7 0 a3.5 3.5 0 1 0 -7 0z" fill="black"></path><path d="M654.5 126 a3.5 3.5 0 1 0 7 0 a3.5 3.5 0 1 0 -7 0zM514.5 98 a3.5 3.5 0 1 0 7 0 a3.5 3.5 0 1 0 -7 0zM122.5 98 a3.5 3.5 0 1 0 7 0 a3.5 3.5 0 1 0 -7 0zM374.5 70 a3.5 3.5 0 1 0 7 0 a3.5 3.5 0 1 0 -7 0zM262.5 98 a3.5 3.5 0 1 0 7 0 a3.5 3.5 0 1 0 -7 0zM654.5 70 a3.5 3.5 0 1 0 7 0 a3.5 3.5 0 1 0 -7 0zM346.5 154 a3.5 3.5 0 1 0 7 0 a3.5 3.5 0 1 0 -7 0z" fill="black"></path></mask></defs></svg>